<?xml version="1.0" encoding="iso-8859-1"?>
<!-- Uploaded to: SVG Repo, www.svgrepo.com, Generator: SVG Repo Mixer Tools -->
<svg version="1.1" id="Layer_1" xmlns="http://www.w3.org/2000/svg" xmlns:xlink="http://www.w3.org/1999/xlink" 
	 viewBox="0 0 505 505" xml:space="preserve">
<circle style="fill:#FD8469;" cx="252.5" cy="252.5" r="252.5"/>
<polygon style="fill:#FFFFFF;" points="226.1,368.9 226.1,331.1 173.9,331.1 173.9,278.9 136.1,278.9 121.1,341.2 163.8,383.9 "/>
<polygon style="fill:#395767;" points="163.8,383.9 121.1,341.2 107.7,397.3 "/>
<polygon style="fill:#FFD05B;" points="256.5,135.3 143.4,248.4 136.1,278.9 173.9,278.9 287,165.8 "/>
<polygon style="fill:#F9B54C;" points="287,165.8 173.9,278.9 173.9,331.1 226.1,331.1 339.2,218 "/>
<polygon style="fill:#FFD05B;" points="339.2,218 226.1,331.1 226.1,368.9 256.6,361.6 369.7,248.5 "/>
<path style="fill:#395767;" d="M414.9,174l-84-84c-8.1-8.1-21.2-8.1-29.3,0l-45.1,45.3l113.2,113.2l45.2-45.2
	C423,195.2,423,182.1,414.9,174z"/>
<rect x="307.721" y="98.881" transform="matrix(-0.7071 0.7071 -0.7071 -0.7071 683.2454 74.851)" style="fill:#FFFFFF;" width="36.8" height="160.098"/>
</svg>